HIERARCHY
ROOT Hips
{
  OFFSET 0 0 0
  CHANNELS 6 Xposition Yposition Zposition Zrotation Yrotation Xrotation
  JOINT LeftThigh
  {
    OFFSET 8.409438 0 -5.917753
    CHANNELS 3 Zrotation Yrotation Xrotation
    JOINT LeftLeg
    {
      OFFSET 0 0 -42.358652
      CHANNELS 3 Zrotation Yrotation Xrotation
      JOINT LeftFoot
      {
        OFFSET 0 0 -39.357303
        CHANNELS 3 Zrotation Yrotation Xrotation
      }
    }
  }
  JOINT RightThigh
  {
    OFFSET -8.409438 0 -5.917753
    CHANNELS 3 Zrotation Yrotation Xrotation
    JOINT RightLeg
    {
      OFFSET 0 0 -42.358652
      CHANNELS 3 Zrotation Yrotation Xrotation
      JOINT RightFoot
      {
        OFFSET 0 0 -39.357303
        CHANNELS 3 Zrotation Yrotation Xrotation
      }
    }
  }
  JOINT SpineLow
  {
    OFFSET 0 0 4.719101
    CHANNELS 3 Zrotation Yrotation Xrotation
    JOINT SpineMid
    {
      OFFSET 0 0 12.899191
      CHANNELS 3 Zrotation Yrotation Xrotation
      JOINT Chest
      {
        OFFSET 0 0 12.899191
        CHANNELS 3 Zrotation Yrotation Xrotation
        JOINT LeftShoulder
        {
          OFFSET 7.550562 1.41573 9.438202
          CHANNELS 3 Zrotation Yrotation Xrotation
          JOINT LeftArm
          {
            OFFSET 9.155056 0 4.247191
            CHANNELS 3 Zrotation Yrotation Xrotation
            JOINT LeftForearm
            {
              OFFSET 0 0 25.771955
              CHANNELS 3 Zrotation Yrotation Xrotation
              JOINT LeftHand
              {
                OFFSET 0 0 25.197169
                CHANNELS 3 Zrotation Yrotation Xrotation
              }
            }
          }
        }
        JOINT RightShoulder
        {
          OFFSET -7.550562 1.41573 9.438202
          CHANNELS 3 Zrotation Yrotation Xrotation
          JOINT RightArm
          {
            OFFSET -9.155056 0 4.247191
            CHANNELS 3 Zrotation Yrotation Xrotation
            JOINT RightForearm
            {
              OFFSET 0 0 -25.771955
              CHANNELS 3 Zrotation Yrotation Xrotation
              JOINT RightHand
              {
                OFFSET 0 0 -25.197169
                CHANNELS 3 Zrotation Yrotation Xrotation
              }
            }
          }
        }
        JOINT Neck
        {
          OFFSET 0 0 15.101124
          CHANNELS 3 Zrotation Yrotation Xrotation
          JOINT Head
          {
            OFFSET 0 0 11.325843
            CHANNELS 3 Zrotation Yrotation Xrotation
            End Site
            {
              OFFSET 0 0 14.157303
            }
          }
        }
      }
    }
  }
}
MOTION
Frames: 16
Frame Time: 0.0
0.0  93.25843  0.0  -105.305492  37.149966  173.513476  57.136693  -38.197433  -63.513591  -11.055522  13.525582  13.190226  -5.541691  -1.251697  0.986542  4.477592  17.250774  -42.854364  -15.603953  27.420769  47.011147  1.829631  -6.820464  -7.498727  0.459599  -3.393458  -1.015341  1.407779  -9.253945  -2.85735  1.407779  -9.253944  -2.85735  -33.502889  26.183681  4.434663  126.860884  48.513918  -152.652464  -18.493304  -3.310694  67.18536  47.087001  -1.433222  2.332668  -9.472789  -10.12302  21.555648  50.543335  46.962278  13.32788  -28.582826  -18.003601  -106.757587  69.175028  10.860497  22.688906  -18.249878  -7.201137  13.898572  -13.513321  -5.82502  10.205019  
0.0  93.25843  0.0  -105.187277  37.728711  173.61192  57.139607  -37.688912  -63.196774  -10.850939  13.728158  13.3529  -5.676139  -1.19749  1.011839  4.590623  16.316279  -43.582392  -14.592721  28.249706  49.787666  1.756818  -6.544233  -7.482093  0.290199  -3.388003  -1.00248  0.939957  -9.246642  -2.797907  0.939957  -9.246642  -2.797907  -33.542009  26.429103  4.29781  126.624396  49.054696  -152.529913  -18.493344  -3.272781  66.526367  47.552061  -1.432302  1.93481  -9.387341  -9.967297  21.414192  50.903149  46.562732  13.663699  -27.985824  -17.650538  -108.525581  69.635019  10.555081  22.250018  -18.035402  -7.106663  13.677245  -13.35754  -5.742398  10.044536  
0.0  93.25843  0.0  -104.990934  38.301042  173.819032  56.968641  -37.439338  -62.744435  -10.597266  14.028316  13.537618  -5.684949  -1.172431  1.05313  4.483625  14.996999  -44.339653  -13.556635  29.391276  52.328861  1.897665  -6.266697  -7.396545  0.103697  -3.409289  -0.999066  0.427635  -9.312766  -2.762459  0.427635  -9.312767  -2.762458  -33.483644  26.818757  4.19742  126.472374  49.790471  -152.361515  -18.389333  -3.131842  65.967541  48.10065  -1.399416  1.539181  -9.354856  -9.602848  21.308657  51.198175  46.191821  13.92964  -27.013644  -17.484736  -110.53903  70.0599  10.338496  21.802904  -17.787593  -6.945692  13.442586  -13.178637  -5.608853  9.876535  
0.0  93.25843  0.0  -104.978354  38.903744  173.724276  56.571888  -37.18454  -62.14828  -10.662681  14.400867  13.682443  -5.502599  -1.184664  1.056862  4.046444  13.382898  -44.59669  -12.58018  30.727062  54.433756  2.223723  -6.002379  -7.281752  -0.134582  -3.433983  -0.973713  -0.230184  -9.390111  -2.658867  -0.230184  -9.390111  -2.658867  -33.368005  27.160753  3.977894  126.223033  50.410892  -152.288774  -18.202479  -3.143371  65.549274  48.510926  -1.469567  1.273315  -9.195993  -9.243375  21.210183  51.068403  45.709481  14.35635  -26.051237  -17.446478  -112.0968  70.132802  10.883117  20.531185  -17.540592  -6.752765  13.242698  -13.000682  -5.452549  9.735484  
0.0  93.25843  0.0  -104.752422  39.515126  174.007874  56.335426  -36.636532  -61.669253  -10.671456  14.619901  13.956003  -5.553971  -1.215896  1.047312  3.715281  11.725059  -45.204578  -11.626528  32.18776  56.711379  2.568348  -5.757383  -7.177042  -0.355925  -3.468668  -0.980299  -0.836605  -9.493756  -2.644961  -0.836605  -9.493755  -2.644961  -33.202745  27.614772  3.799386  125.676279  51.121912  -152.452546  -17.995539  -3.397806  65.259596  48.716945  -1.710081  1.176357  -9.07742  -8.810516  21.070491  51.161665  45.323099  14.592782  -24.474132  -17.451516  -114.369662  70.595622  10.955486  20.057792  -17.290596  -6.556919  13.052717  -12.820291  -5.294447  9.601795  
0.0  93.25843  0.0  -104.568564  40.236127  174.107539  56.209262  -35.836503  -61.137365  -10.978611  14.780552  14.203778  -5.463462  -1.193442  1.084477  3.365456  10.030499  -45.274652  -10.938262  33.67465  58.517188  2.93562  -5.48166  -7.018627  -0.612054  -3.485545  -0.945895  -1.54551  -9.549127  -2.512756  -1.54551  -9.549126  -2.512756  -32.959435  27.990345  3.551718  124.996644  51.821551  -152.689  -17.786837  -3.815605  65.063434  48.750895  -2.129589  1.24361  -8.742198  -8.509278  20.796724  51.327293  44.944376  14.983411  -22.999426  -17.366223  -116.461335  71.039891  11.18621  19.561463  -17.021735  -6.360409  12.853909  -12.625689  -5.135359  9.461492  
0.0  93.25843  0.0  -103.940576  41.018217  174.711454  56.109598  -35.130856  -60.399628  -11.009655  14.890259  14.409826  -5.435538  -1.177799  1.099422  3.43287  8.311774  -45.603715  -10.378887  35.313312  60.350594  3.398387  -5.168457  -6.811193  -0.826367  -3.50852  -0.930229  -2.1366  -9.619293  -2.437663  -2.1366  -9.619294  -2.437663  -32.746624  28.38158  3.199448  124.345901  52.546159  -153.012958  -17.620055  -4.213284  64.949698  48.679211  -2.688856  1.453332  -8.579124  -8.069793  20.555989  51.887647  44.574556  15.429248  -21.625175  -17.155214  -118.48148  71.54256  11.416332  19.225758  -16.697865  -6.157064  12.633704  -12.39004  -4.969565  9.30565  
0.0  93.25843  0.0  -103.357417  41.868619  175.159242  55.963513  -34.45422  -59.558408  -10.994858  14.982945  14.541115  -5.401975  -1.155774  1.181576  3.6372  6.632939  -45.557618  -10.330035  35.314069  60.230534  2.517208  -3.963855  -4.977319  -1.059958  -3.5142  -0.899464  -2.783603  -9.64178  -2.318318  -2.783603  -9.64178  -2.318318  -32.546181  28.720359  2.939787  123.885697  53.360075  -153.262379  -17.543054  -4.488848  64.925185  48.55717  -3.299965  1.723846  -8.220187  -7.780845  20.302443  52.607131  44.295058  16.031897  -20.929294  -16.808655  -119.886465  71.831432  11.646819  18.701341  -16.471245  -5.893652  12.47794  -12.228001  -4.762711  9.198839  
0.0  93.25843  0.0  -102.429171  42.714235  175.997824  55.914917  -33.856046  -58.656448  -10.886074  15.064109  14.655294  -5.263394  -1.088555  1.253708  4.255515  4.944584  -45.614582  -10.139034  36.63434  61.807697  2.919647  -3.584911  -4.743969  -1.252349  -3.523047  -0.901769  -3.312334  -9.672433  -2.295766  -3.312334  -9.672433  -2.295766  -32.444601  28.972444  2.615775  123.652472  54.050538  -153.442032  -17.558306  -4.616878  64.946923  48.438983  -3.938876  1.963901  -8.190318  -7.402306  20.207114  53.724435  44.029222  16.781714  -20.185888  -16.38714  -121.455546  72.383278  11.560362  18.488114  -16.203909  -5.650941  12.356876  -12.034447  -4.571622  9.117537  
0.0  93.25843  0.0  -101.487311  43.595683  176.75699  55.694575  -33.17408  -57.582989  -10.984047  15.080289  14.782524  -5.438494  -1.088113  1.247335  5.058215  3.346647  -45.413415  -10.183119  37.637186  63.264898  3.233289  -3.146293  -4.544511  -1.457006  -3.526765  -0.894561  -3.876388  -9.688807  -2.245311  -3.876388  -9.688806  -2.245311  -32.337904  29.204309  2.395304  123.682671  54.809777  -153.407997  -17.667464  -4.628172  64.993167  48.371221  -4.539773  2.161299  -7.974812  -7.177049  20.037165  54.879472  43.826281  17.681052  -19.935154  -15.848331  -122.496775  72.818417  11.404758  18.007485  -16.083865  -5.286453  12.325953  -11.953334  -4.29464  9.105964  
0.0  93.25843  0.0  -100.255077  44.442755  177.858311  55.666238  -32.47484  -56.539248  -11.088983  15.044058  14.858318  -5.365254  -1.104348  1.22271  6.150941  1.819503  -45.321476  -10.374478  38.225192  64.744428  3.370484  -2.682789  -4.359396  -1.635457  -3.538463  -0.893251  -4.367322  -9.726275  -2.214407  -4.367322  -9.726276  -2.214407  -32.204862  29.31665  2.182809  124.002811  55.534013  -153.111306  -17.803112  -4.606479  65.098753  48.266481  -5.066177  2.288689  -7.971882  -6.933385  19.784049  56.325067  43.607605  18.726787  -19.601344  -15.297177  -123.602134  73.44414  11.13416  17.526797  -15.812117  -5.016324  12.236613  -11.756545  -4.083872  9.048755  
0.0  93.25843  0.0  -99.183053  45.386086  178.635896  55.453723  -31.720614  -55.325374  -11.710776  15.110963  14.872626  -4.61933  -1.255234  1.129802  7.071352  0.386578  -44.859422  -10.785463  38.459754  65.978002  3.375556  -2.172808  -4.140874  -1.843106  -3.531112  -0.864588  -4.943094  -9.710431  -2.105018  -4.943093  -9.710431  -2.105018  -32.069825  29.383198  1.995154  124.441055  56.028145  -152.595768  -18.050079  -4.691682  65.215174  48.215225  -5.540168  2.397577  -7.78379  -6.801371  19.450546  57.591484  43.442678  19.759567  -19.273245  -14.839282  -124.481807  74.0638  10.903999  16.818693  -15.723255  -4.593549  12.268011  -11.699437  -3.765444  9.084863  
0.0  93.25843  0.0  -97.6244  46.292646  -179.962168  55.358486  -31.043336  -54.070637  -11.786074  14.971626  14.778467  -4.334002  -1.25115  1.124459  8.171517  -1.093297  -44.56822  -11.372997  38.581008  67.008685  3.375455  -1.647391  -3.918204  -1.990702  -3.53466  -0.881042  -5.34669  -9.725664  -2.127935  -5.34669  -9.725664  -2.127934  -31.972841  29.46418  1.85351  124.994038  56.504145  -152.144794  -18.433844  -4.783377  65.529416  48.030355  -5.965195  2.529041  -7.815945  -6.557733  19.317572  58.894423  43.281584  20.717888  -18.731961  -14.478141  -125.449043  74.627492  10.788248  15.97883  -15.494346  -4.291226  12.270995  -11.534637  -3.533843  9.096961  
0.0  93.25843  0.0  -96.310455  47.3441  -178.959011  55.098285  -30.358128  -52.640358  -12.09647  14.904925  14.754802  -4.047184  -1.158153  1.211707  8.794399  -2.594971  -43.802656  -12.095138  38.623669  67.659053  3.403356  -1.117836  -3.681872  -2.176722  -3.510819  -0.867243  -5.860949  -9.664693  -2.064153  -5.860949  -9.664693  -2.064153  -31.91562  29.505085  1.696475  125.359318  56.176306  -151.280831  -18.874203  -5.764  65.495651  47.897618  -6.413996  2.87031  -7.795785  -6.363197  19.130186  60.271819  43.171882  21.660083  -18.06332  -14.26332  -126.235838  75.06017  10.804587  15.114958  -15.126267  -4.018799  12.289104  -11.264614  -3.32223  9.120119  
0.0  93.25843  0.0  -94.642147  48.382015  -177.399051  54.579647  -29.761403  -50.975898  -11.959414  14.609424  14.482633  -3.926116  -1.056905  1.238951  9.306272  -4.220586  -43.025675  -12.934079  38.696191  67.875174  3.528067  -0.588877  -3.428519  -2.327858  -3.492745  -0.893069  -6.273206  -9.621921  -2.114292  -6.273206  -9.621921  -2.114291  -31.867323  29.508274  1.483867  126.136658  56.318924  -150.706934  -19.333276  -6.112255  66.040613  47.588836  -6.86094  2.997356  -7.836012  -6.135012  18.956767  61.965965  42.901404  22.81124  -17.383422  -14.084781  -127.033571  75.323942  10.955627  14.324569  -14.829627  -3.708166  12.269356  -11.049167  -3.082457  9.115134  
0.0  93.25843  0.0  -92.810013  49.505452  -175.804299  53.933864  -29.196686  -49.05641  -11.650411  14.204869  14.159866  -3.834524  -0.930485  1.145034  9.560927  -5.838982  -41.822623  -13.908556  38.741941  67.69925  3.696848  -0.063947  -3.156357  -2.484231  -3.452691  -0.900829  -6.702798  -9.517738  -2.116336  -6.702799  -9.517738  -2.116337  -31.743258  29.464546  1.27456  127.118521  55.929409  -149.77378  -19.592508  -6.87587  66.556767  47.216785  -7.284763  3.172322  -7.741972  -5.988493  18.73135  63.947288  42.526879  24.074434  -16.785343  -13.951343  -127.654358  75.466702  11.131872  13.732977  -14.325204  -3.454143  12.239202  -10.676553  -2.880744  9.101554  
